<?xml version="1.0" encoding="UTF-8" standalone="no"?>
<!DOCTYPE svg PUBLIC "-//W3C//DTD SVG 1.1//EN" "http://www.w3.org/Graphics/SVG/1.1/DTD/svg11.dtd">
<svg width="100%" height="100%" viewBox="0 0 200 200" version="1.1" xmlns="http://www.w3.org/2000/svg" xmlns:xlink="http://www.w3.org/1999/xlink" xml:space="preserve" xmlns:serif="http://www.serif.com/" style="fill-rule:evenodd;clip-rule:evenodd;stroke-linejoin:round;stroke-miterlimit:2;">
    <path d="M166.667,187.5L33.333,187.5L33.333,12.5L125,12.5L166.667,54.167L166.667,187.5Z" style="fill:rgb(144,202,249);fill-rule:nonzero;"/>
    <path d="M160.417,58.333L120.833,58.333L120.833,18.75L160.417,58.333Z" style="fill:rgb(225,245,254);fill-rule:nonzero;"/>
    <g transform="matrix(1,0,0,0.745763,0.752823,38.4301)">
        <path d="M59.308,130.446C66.604,130.446 71.788,125.297 71.788,116.608C71.788,107.082 66.076,104.701 60.988,102.641C55.756,100.517 54.94,99.101 54.94,97.041C54.94,95.239 56.14,93.63 58.54,93.63C61.612,93.63 63.196,95.625 64.348,98.844L70.828,93.759C68.38,87.129 64.06,83.589 58.54,83.589C52.732,83.589 47.26,88.61 47.26,97.299C47.26,105.924 52.156,109.142 57.148,111.008C62.188,112.875 64.108,113.969 64.108,116.737C64.108,118.475 63.196,120.405 59.548,120.405C55.756,120.405 53.692,117.895 52.492,114.162L45.868,119.311C47.74,125.941 52.252,130.446 59.308,130.446Z" style="fill-rule:nonzero;"/>
        <path d="M108.892,107.018C108.892,93.759 101.068,83.589 91.42,83.589C81.772,83.589 73.948,93.759 73.948,107.018C73.948,120.277 81.772,130.446 91.42,130.446C94.252,130.446 96.94,129.545 99.292,128L102.892,133.085L108.412,126.52L105.052,121.757C107.452,117.767 108.892,112.682 108.892,107.018ZM91.42,120.405C85.948,120.405 81.628,115.063 81.628,107.018C81.628,98.972 85.948,93.63 91.42,93.63C96.892,93.63 101.212,98.972 101.212,107.018C101.212,109.785 100.684,112.231 99.82,114.291L94.444,106.632L88.924,113.197L93.772,120.084C93.004,120.277 92.236,120.405 91.42,120.405Z" style="fill-rule:nonzero;"/>
        <path d="M146.956,107.018C146.956,93.759 139.132,83.589 129.484,83.589C119.836,83.589 112.012,93.759 112.012,107.018C112.012,120.277 119.836,130.446 129.484,130.446C132.316,130.446 135.004,129.545 137.356,128L140.956,133.085L146.476,126.52L143.116,121.757C145.516,117.767 146.956,112.682 146.956,107.018ZM129.484,120.405C124.012,120.405 119.692,115.063 119.692,107.018C119.692,98.972 124.012,93.63 129.484,93.63C134.956,93.63 139.276,98.972 139.276,107.018C139.276,109.785 138.748,112.231 137.884,114.291L132.508,106.632L126.988,113.197L131.836,120.084C131.068,120.277 130.3,120.405 129.484,120.405Z" style="fill-rule:nonzero;"/>
    </g>
</svg>
